<svg width="113" height="44" viewBox="0 0 113 44" fill="none" xmlns="http://www.w3.org/2000/svg">
<rect y="0.556283" width="25.7483" height="25.7483" rx="3.5" transform="matrix(0.830993 0.556283 -0.830993 0.556283 22.6898 14.489)" fill="url(#paint0_linear_14_135458)" stroke="url(#paint1_linear_14_135458)"/>
<rect y="0.556283" width="25.7483" height="25.7483" rx="3.5" transform="matrix(0.830993 0.556283 -0.830993 0.556283 22.6898 7.36402)" fill="url(#paint2_linear_14_135458)" stroke="url(#paint3_linear_14_135458)"/>
<rect y="0.556283" width="25.7483" height="25.7483" rx="3.5" transform="matrix(0.830993 0.556283 -0.830993 0.556283 22.6898 0.246832)" fill="url(#paint4_linear_14_135458)" stroke="url(#paint5_linear_14_135458)"/>
<path d="M52.4551 21.1322V1.91673C52.4551 1.91673 58.0618 1.91073 60.7331 1.91673C62.6913 1.91673 63.8005 2.13442 64.9058 2.97526C66.2155 3.97189 66.3877 5.32302 66.3877 6.55332C66.3877 8.19505 65.4839 9.11279 64.5742 9.72095C63.9727 10.1234 63.0278 10.4789 62.2052 10.6786C63.4983 10.7505 66.9824 11.131 66.9824 15.5689C66.9824 18.4449 65.39 19.9578 64.3091 20.4282C63.3388 20.8506 62.524 21.1322 60.2694 21.1322H52.4561H52.4551ZM55.6184 18.2611C55.6184 18.2611 58.4217 18.2452 60.4259 18.2452C63.3271 18.2452 63.7907 16.8521 63.7907 15.4371C63.7907 14.1029 63.2537 12.5311 60.6264 12.5311H55.6174V18.2611H55.6184ZM55.6233 10.0225H60.0337C62.2756 10.0225 63.2117 9.03789 63.2117 7.0786C63.2117 5.93318 62.8419 4.62498 60.2958 4.62498H55.6017L55.6233 10.0225Z" fill="black"/>
<path d="M74.6631 21.1305L72.0427 28.0819H75.0064L82.5224 7.61719H79.3063L75.1414 19.7235L70.9765 7.61719H67.6841L72.7919 21.1305H74.6631Z" fill="black"/>
<path d="M109.582 10.7387V1.92188H112.455V21.1373H109.533V18.1644C109.42 18.5279 108.634 21.4239 104.936 21.4239C101.695 21.4239 98.7417 19.6424 98.7417 14.7601C98.7417 11.4587 99.7815 7.29246 104.833 7.29246C108.092 7.29246 109.391 9.83195 109.582 10.7387ZM109.631 14.5235C109.631 13.5828 109.581 12.5542 109.319 11.997C108.932 11.1751 108.332 10.0367 105.515 10.0367C103.16 10.0367 101.713 10.9963 101.713 14.5355C101.713 18.0746 103.39 18.6747 105.779 18.6747C109.793 18.6747 109.632 15.4642 109.632 14.5235" fill="black"/>
<path d="M96.6306 11.8404C96.6306 10.9387 96.4457 10.0779 95.982 9.29194C95.2289 8.0157 93.6081 7.30469 91.9277 7.30469C88.7291 7.30469 87.3647 9.70637 86.9695 10.8158V7.61126H84.0918V21.1246H87.0184C87.0184 21.1246 87.0497 14.9381 87.0497 13.1496C87.0497 11.3611 88.2929 10.0119 90.6845 10.0119C92.6808 10.0119 93.3303 10.8338 93.6375 11.5259C93.8331 11.9672 93.8761 12.5514 93.8761 13.3184C93.8761 14.0853 93.88 21.1246 93.88 21.1246H96.6296V11.8404H96.6306Z" fill="black"/>
<path d="M56.4591 39.2101C56.1731 39.2101 55.9164 39.1735 55.6891 39.1001C55.4691 39.0268 55.2711 38.9278 55.0951 38.8031C54.9264 38.6711 54.7834 38.5245 54.6661 38.3631L54.5011 39.0781H53.1811V31.1581H54.6661V34.3041C54.8421 34.0475 55.0731 33.8348 55.3591 33.6661C55.6524 33.4901 56.0154 33.4021 56.4481 33.4021C56.9614 33.4021 57.4161 33.5305 57.8121 33.7871C58.2154 34.0365 58.5307 34.3811 58.7581 34.8211C58.9927 35.2538 59.1101 35.7525 59.1101 36.3171C59.1101 36.8671 58.9927 37.3621 58.7581 37.8021C58.5307 38.2421 58.2191 38.5868 57.8231 38.8361C57.4271 39.0855 56.9724 39.2101 56.4591 39.2101ZM56.1071 37.9121C56.4004 37.9121 56.6571 37.8461 56.8771 37.7141C57.1044 37.5748 57.2804 37.3878 57.4051 37.1531C57.5297 36.9111 57.5921 36.6325 57.5921 36.3171C57.5921 36.0018 57.5297 35.7231 57.4051 35.4811C57.2804 35.2318 57.1044 35.0411 56.8771 34.9091C56.6571 34.7698 56.4004 34.7001 56.1071 34.7001C55.8211 34.7001 55.5644 34.7698 55.3371 34.9091C55.1171 35.0411 54.9411 35.2281 54.8091 35.4701C54.6844 35.7121 54.6221 35.9908 54.6221 36.3061C54.6221 36.6215 54.6844 36.9038 54.8091 37.1531C54.9411 37.3951 55.1171 37.5821 55.3371 37.7141C55.5644 37.8461 55.8211 37.9121 56.1071 37.9121ZM61.9071 39.2101C61.4598 39.2101 61.0748 39.1185 60.7521 38.9351C60.4368 38.7445 60.1948 38.4695 60.0261 38.1101C59.8574 37.7435 59.7731 37.2925 59.7731 36.7571V33.5341H61.2581V36.6031C61.2581 37.0505 61.3498 37.3878 61.5331 37.6151C61.7238 37.8425 62.0134 37.9561 62.4021 37.9561C62.6514 37.9561 62.8714 37.9011 63.0621 37.7911C63.2528 37.6738 63.4031 37.5088 63.5131 37.2961C63.6304 37.0761 63.6891 36.8085 63.6891 36.4931V33.5341H65.1631V39.0781H63.8651L63.7441 38.1761C63.5828 38.4915 63.3444 38.7445 63.0291 38.9351C62.7138 39.1185 62.3398 39.2101 61.9071 39.2101ZM66.1004 39.0781V33.5341H67.5854V39.0781H66.1004ZM66.8484 32.7751C66.5844 32.7751 66.3644 32.6981 66.1884 32.5441C66.0197 32.3828 65.9354 32.1811 65.9354 31.9391C65.9354 31.6971 66.0197 31.4991 66.1884 31.3451C66.3644 31.1838 66.5844 31.1031 66.8484 31.1031C67.1197 31.1031 67.3397 31.1838 67.5084 31.3451C67.6844 31.4991 67.7724 31.6971 67.7724 31.9391C67.7724 32.1811 67.6844 32.3828 67.5084 32.5441C67.3397 32.6981 67.1197 32.7751 66.8484 32.7751ZM68.536 39.0781V31.1581H70.021V39.0781H68.536ZM73.3826 39.2101C72.8766 39.2101 72.4219 39.0855 72.0186 38.8361C71.6226 38.5868 71.3109 38.2421 71.0836 37.8021C70.8562 37.3621 70.7426 36.8671 70.7426 36.3171C70.7426 35.7525 70.8562 35.2538 71.0836 34.8211C71.3182 34.3811 71.6372 34.0365 72.0406 33.7871C72.4512 33.5305 72.9096 33.4021 73.4156 33.4021C73.8116 33.4021 74.1599 33.4755 74.4606 33.6221C74.7612 33.7688 75.0032 33.9778 75.1866 34.2491V31.1581H76.6716V39.0781H75.3516L75.1866 38.3191C75.0766 38.4731 74.9372 38.6198 74.7686 38.7591C74.6072 38.8985 74.4129 39.0085 74.1856 39.0891C73.9582 39.1698 73.6906 39.2101 73.3826 39.2101ZM73.7346 37.9121C74.0279 37.9121 74.2846 37.8461 74.5046 37.7141C74.7319 37.5748 74.9079 37.3841 75.0326 37.1421C75.1572 36.9001 75.2196 36.6215 75.2196 36.3061C75.2196 35.9908 75.1572 35.7121 75.0326 35.4701C74.9079 35.2281 74.7319 35.0411 74.5046 34.9091C74.2846 34.7698 74.0279 34.7001 73.7346 34.7001C73.4559 34.7001 73.2029 34.7698 72.9756 34.9091C72.7482 35.0411 72.5686 35.2281 72.4366 35.4701C72.3119 35.7121 72.2496 35.9871 72.2496 36.2951C72.2496 36.6178 72.3119 36.9001 72.4366 37.1421C72.5686 37.3841 72.7446 37.5748 72.9646 37.7141C73.1919 37.8461 73.4486 37.9121 73.7346 37.9121ZM82.2995 39.2101C81.7421 39.2101 81.2471 39.0855 80.8145 38.8361C80.3818 38.5868 80.0445 38.2458 79.8025 37.8131C79.5605 37.3805 79.4395 36.8855 79.4395 36.3281C79.4395 35.7561 79.5605 35.2538 79.8025 34.8211C80.0445 34.3811 80.3818 34.0365 80.8145 33.7871C81.2471 33.5305 81.7421 33.4021 82.2995 33.4021C83.0108 33.4021 83.6085 33.5891 84.0925 33.9631C84.5765 34.3371 84.8845 34.8505 85.0165 35.5031H83.4435C83.3775 35.2465 83.2381 35.0448 83.0255 34.8981C82.8201 34.7515 82.5745 34.6781 82.2885 34.6781C82.0318 34.6781 81.8008 34.7441 81.5955 34.8761C81.3975 35.0008 81.2398 35.1878 81.1225 35.4371C81.0125 35.6791 80.9575 35.9688 80.9575 36.3061C80.9575 36.5628 80.9905 36.7938 81.0565 36.9991C81.1225 37.1971 81.2141 37.3695 81.3315 37.5161C81.4488 37.6555 81.5881 37.7618 81.7495 37.8351C81.9181 37.9085 82.0978 37.9451 82.2885 37.9451C82.4791 37.9451 82.6515 37.9121 82.8055 37.8461C82.9668 37.7801 83.1025 37.6885 83.2125 37.5711C83.3225 37.4465 83.3995 37.2961 83.4435 37.1201H85.0165C84.8845 37.7581 84.5728 38.2678 84.0815 38.6491C83.5975 39.0231 83.0035 39.2101 82.2995 39.2101ZM88.4091 39.2101C87.8518 39.2101 87.3568 39.0928 86.9241 38.8581C86.4988 38.6161 86.1651 38.2825 85.9231 37.8571C85.6884 37.4245 85.5711 36.9258 85.5711 36.3611C85.5711 35.7818 85.6884 35.2721 85.9231 34.8321C86.1651 34.3848 86.4988 34.0365 86.9241 33.7871C87.3494 33.5305 87.8444 33.4021 88.4091 33.4021C88.9591 33.4021 89.4394 33.5231 89.8501 33.7651C90.2608 34.0071 90.5798 34.3335 90.8071 34.7441C91.0344 35.1548 91.1481 35.6205 91.1481 36.1411C91.1481 36.2145 91.1481 36.2988 91.1481 36.3941C91.1481 36.4821 91.1408 36.5738 91.1261 36.6691H86.6271V35.7671H89.6521C89.6301 35.4078 89.5018 35.1255 89.2671 34.9201C89.0398 34.7148 88.7538 34.6121 88.4091 34.6121C88.1598 34.6121 87.9288 34.6708 87.7161 34.7881C87.5034 34.8981 87.3348 35.0705 87.2101 35.3051C87.0928 35.5398 87.0341 35.8368 87.0341 36.1961V36.5151C87.0341 36.8158 87.0891 37.0798 87.1991 37.3071C87.3164 37.5271 87.4778 37.6995 87.6831 37.8241C87.8884 37.9415 88.1268 38.0001 88.3981 38.0001C88.6694 38.0001 88.8931 37.9415 89.0691 37.8241C89.2524 37.7068 89.3881 37.5565 89.4761 37.3731H90.9941C90.8914 37.7178 90.7191 38.0295 90.4771 38.3081C90.2351 38.5868 89.9381 38.8068 89.5861 38.9681C89.2341 39.1295 88.8418 39.2101 88.4091 39.2101ZM91.8143 39.0781V33.5341H93.1233L93.2333 34.4361C93.4019 34.1281 93.6403 33.8788 93.9483 33.6881C94.2636 33.4975 94.6376 33.4021 95.0703 33.4021C95.5323 33.4021 95.9209 33.4975 96.2363 33.6881C96.5516 33.8788 96.7899 34.1575 96.9513 34.5241C97.1199 34.8908 97.2043 35.3418 97.2043 35.8771V39.0781H95.7303V36.0201C95.7303 35.5801 95.6349 35.2428 95.4443 35.0081C95.2609 34.7735 94.9749 34.6561 94.5863 34.6561C94.3369 34.6561 94.1133 34.7148 93.9153 34.8321C93.7246 34.9495 93.5743 35.1181 93.4643 35.3381C93.3543 35.5508 93.2993 35.8111 93.2993 36.1191V39.0781H91.8143ZM100.55 39.0781C100.162 39.0781 99.8207 39.0195 99.5273 38.9021C99.2413 38.7775 99.0177 38.5758 98.8563 38.2971C98.695 38.0111 98.6143 37.6225 98.6143 37.1311V34.7771H97.6683V33.5341H98.6143L98.7793 32.0271H100.099V33.5341H101.562V34.7771H100.099V37.1531C100.099 37.4025 100.154 37.5748 100.264 37.6701C100.374 37.7655 100.561 37.8131 100.825 37.8131H101.551V39.0781H100.55ZM104.784 39.2101C104.227 39.2101 103.732 39.0928 103.299 38.8581C102.874 38.6161 102.54 38.2825 102.298 37.8571C102.064 37.4245 101.946 36.9258 101.946 36.3611C101.946 35.7818 102.064 35.2721 102.298 34.8321C102.54 34.3848 102.874 34.0365 103.299 33.7871C103.725 33.5305 104.22 33.4021 104.784 33.4021C105.334 33.4021 105.815 33.5231 106.225 33.7651C106.636 34.0071 106.955 34.3335 107.182 34.7441C107.41 35.1548 107.523 35.6205 107.523 36.1411C107.523 36.2145 107.523 36.2988 107.523 36.3941C107.523 36.4821 107.516 36.5738 107.501 36.6691H103.002V35.7671H106.027C106.005 35.4078 105.877 35.1255 105.642 34.9201C105.415 34.7148 105.129 34.6121 104.784 34.6121C104.535 34.6121 104.304 34.6708 104.091 34.7881C103.879 34.8981 103.71 35.0705 103.585 35.3051C103.468 35.5398 103.409 35.8368 103.409 36.1961V36.5151C103.409 36.8158 103.464 37.0798 103.574 37.3071C103.692 37.5271 103.853 37.6995 104.058 37.8241C104.264 37.9415 104.502 38.0001 104.773 38.0001C105.045 38.0001 105.268 37.9415 105.444 37.8241C105.628 37.7068 105.763 37.5565 105.851 37.3731H107.369C107.267 37.7178 107.094 38.0295 106.852 38.3081C106.61 38.5868 106.313 38.8068 105.961 38.9681C105.609 39.1295 105.217 39.2101 104.784 39.2101ZM108.19 39.0781V33.5341H109.51L109.653 34.5571C109.785 34.3151 109.95 34.1098 110.148 33.9411C110.353 33.7725 110.584 33.6405 110.841 33.5451C111.105 33.4498 111.394 33.4021 111.71 33.4021V34.9751H111.204C110.984 34.9751 110.778 35.0008 110.588 35.0521C110.404 35.1035 110.243 35.1878 110.104 35.3051C109.964 35.4151 109.858 35.5691 109.785 35.7671C109.711 35.9651 109.675 36.2145 109.675 36.5151V39.0781H108.19Z" fill="black"/>
<defs>
<linearGradient id="paint0_linear_14_135458" x1="7.74414" y1="-0.254618" x2="24.3883" y2="23.163" gradientUnits="userSpaceOnUse">
<stop stop-color="#4177FE"/>
<stop offset="0.515" stop-color="#74C4F2"/>
<stop offset="1" stop-color="#DAE8F0"/>
</linearGradient>
<linearGradient id="paint1_linear_14_135458" x1="27.1485" y1="26.1281" x2="14.7958" y2="2.3498" gradientUnits="userSpaceOnUse">
<stop stop-color="white"/>
<stop offset="1" stop-color="white" stop-opacity="0.2"/>
</linearGradient>
<linearGradient id="paint2_linear_14_135458" x1="7.74414" y1="-0.254618" x2="24.3883" y2="23.163" gradientUnits="userSpaceOnUse">
<stop stop-color="#4177FE"/>
<stop offset="0.515" stop-color="#74C4F2"/>
<stop offset="1" stop-color="#DAE8F0"/>
</linearGradient>
<linearGradient id="paint3_linear_14_135458" x1="27.1485" y1="26.1281" x2="14.7958" y2="2.3498" gradientUnits="userSpaceOnUse">
<stop stop-color="white"/>
<stop offset="1" stop-color="white" stop-opacity="0.2"/>
</linearGradient>
<linearGradient id="paint4_linear_14_135458" x1="7.74414" y1="-0.254618" x2="24.3883" y2="23.163" gradientUnits="userSpaceOnUse">
<stop stop-color="#4177FE"/>
<stop offset="0.515" stop-color="#74C4F2"/>
<stop offset="1" stop-color="#DAE8F0"/>
</linearGradient>
<linearGradient id="paint5_linear_14_135458" x1="27.1485" y1="26.1281" x2="14.7958" y2="2.3498" gradientUnits="userSpaceOnUse">
<stop stop-color="white"/>
<stop offset="1" stop-color="white" stop-opacity="0.2"/>
</linearGradient>
</defs>
</svg>
